<svg xmlns="http://www.w3.org/2000/svg" viewBox="0 0 229.27 106.54"><title>sevenwire</title><path d="M171.08,204.75l-.17-.1Q151.73,181,159.67,157H126.08l-4-4.38h49.51Q155.26,178.84,171.08,204.75Zm.18.19-.08-.1c-8.31-18.68-4-37.41,13-56.37H118.48l-4.33-4.86h86.06Q163.4,174.51,171.26,204.94Zm.05.19a.34.34,0,0,0,0-.1q-3-32.47,44.72-65.51H110.56l-4.15-4.61H235.94Q174.61,170.34,171.31,205.13Z" transform="translate(-57.05 -134.91)" fill="#27ade3"/><path d="M57.18,238.79l.9-1.68a.75.75,0,0,1,1.08-.21,9,9,0,0,0,4,1.11c1.29,0,2.1-.51,2.1-1.46,0-1.16-.94-1.72-3.31-2.79-2.66-1.16-4.9-2.8-4.9-5.64,0-2.15,1.76-4.73,5.89-4.73A9.64,9.64,0,0,1,68,224.73a1,1,0,0,1,.34,1.24l-.77,1.47a.92.92,0,0,1-1.12.34,9.84,9.84,0,0,0-3.53-.9c-1.46,0-1.93.64-1.93,1.29,0,1.11,1.07,1.59,2.75,2.32,3.14,1.37,5.72,2.71,5.72,5.93,0,2.67-2.54,5-6.37,5a9,9,0,0,1-5.67-1.76A.72.72,0,0,1,57.18,238.79Z" transform="translate(-57.05 -134.91)" fill="#27ade3"/><path d="M89.56,223.39a7.75,7.75,0,0,1,7.91,8,9.06,9.06,0,0,1-.09,1.16.78.78,0,0,1-.77.73H84.91a5,5,0,0,0,5,4.6,7.33,7.33,0,0,0,3.83-1.25c.51-.3.81-.47,1.16,0l1.2,1.64A.66.66,0,0,1,96,239.3a9.83,9.83,0,0,1-6.36,2.15c-5.2,0-8.64-4.08-8.64-9S84.4,223.39,89.56,223.39Zm3.91,7.14a4.07,4.07,0,0,0-4-3.82,4.34,4.34,0,0,0-4.39,3.82Z" transform="translate(-57.05 -134.91)" fill="#27ade3"/><path d="M107.88,224.81c-.26-.56,0-1,.64-1h2.54a.79.79,0,0,1,.77.48l4.47,10.14h0L121,224.3c.22-.48.69-.48,1.16-.48h2c.64,0,.9.43.64,1L117.16,241a.74.74,0,0,1-.73.43h-.21a.74.74,0,0,1-.73-.43Z" transform="translate(-57.05 -134.91)" fill="#27ade3"/><path d="M144,223.39a7.75,7.75,0,0,1,7.91,8,11.32,11.32,0,0,1-.09,1.16.79.79,0,0,1-.77.73h-11.7a5,5,0,0,0,5,4.6,7.33,7.33,0,0,0,3.82-1.25c.52-.3.82-.47,1.16,0l1.21,1.64a.66.66,0,0,1-.09,1.11,9.85,9.85,0,0,1-6.36,2.15c-5.21,0-8.64-4.08-8.64-9S138.83,223.39,144,223.39Zm3.91,7.14a4.07,4.07,0,0,0-4-3.82,4.33,4.33,0,0,0-4.38,3.82Z" transform="translate(-57.05 -134.91)" fill="#27ade3"/><path d="M164.63,224.64a.85.85,0,0,1,.82-.82h1.25a.71.71,0,0,1,.69.52l.51,1.46a8.81,8.81,0,0,1,6-2.41c5.25,0,7.18,3.7,7.18,8.17v8.65a.83.83,0,0,1-.81.81h-2.45a.81.81,0,0,1-.82-.81v-8.82c0-2.75-1.33-4.26-3.57-4.26a5.68,5.68,0,0,0-4.77,2.58v10.5c0,.56-.26.81-1,.81h-2.24a.84.84,0,0,1-.82-.81Z" transform="translate(-57.05 -134.91)" fill="#27ade3"/><path d="M193.27,224.81c-.26-.56,0-1,.6-1h2.33a.85.85,0,0,1,.77.52l2.88,9.5h0l4.61-10a.8.8,0,0,1,.73-.43h.25a.76.76,0,0,1,.73.43l4.56,10.07h0l2.83-9.55c.22-.52.86-.52,1.34-.52h1.67a.65.65,0,0,1,.65,1l-5,16.21a.77.77,0,0,1-.78.43h-.17a.8.8,0,0,1-.73-.38l-5.29-11.48h0L200,241.07a.71.71,0,0,1-.69.38h-.21a.74.74,0,0,1-.73-.43Z" transform="translate(-57.05 -134.91)" fill="#27ade3"/><path d="M229.39,214.32a2.47,2.47,0,0,1,2.45-2.54,2.52,2.52,0,1,1,0,5A2.46,2.46,0,0,1,229.39,214.32Zm.48,10.32a.84.84,0,0,1,.81-.82h2.45a.85.85,0,0,1,.82.82v15.57a.84.84,0,0,1-.82.81h-2.45a.83.83,0,0,1-.81-.81Z" transform="translate(-57.05 -134.91)" fill="#27ade3"/><path d="M248.14,224.64a.85.85,0,0,1,.82-.82h1.24a.81.81,0,0,1,.73.61l.48,1.46a6.12,6.12,0,0,1,5-2.5c1.63,0,3.61.43,3.14,1.59l-1,2.11a.75.75,0,0,1-1,.39,3.86,3.86,0,0,0-1.46-.3,4.54,4.54,0,0,0-3.87,2.1v10.93c0,.73-.47.81-1.16.81H249a.84.84,0,0,1-.82-.81Z" transform="translate(-57.05 -134.91)" fill="#27ade3"/><path d="M278.41,223.39a7.75,7.75,0,0,1,7.91,8,11.3,11.3,0,0,1-.08,1.16.8.8,0,0,1-.78.73H273.77a5,5,0,0,0,4.94,4.6,7.33,7.33,0,0,0,3.83-1.25c.52-.3.82-.47,1.16,0l1.2,1.64c.31.34.43.68-.08,1.11a9.86,9.86,0,0,1-6.37,2.15c-5.2,0-8.64-4.08-8.64-9S273.25,223.39,278.41,223.39Zm3.91,7.14a4.05,4.05,0,0,0-3.95-3.82,4.35,4.35,0,0,0-4.39,3.82Z" transform="translate(-57.05 -134.91)" fill="#27ade3"/></svg>