<?xml version="1.0" encoding="UTF-8"?>
<svg width="554px" height="34px" viewBox="0 0 554 34" version="1.1" xmlns="http://www.w3.org/2000/svg" xmlns:xlink="http://www.w3.org/1999/xlink">
    <!-- Generator: Sketch 50.2 (55047) - http://www.bohemiancoding.com/sketch -->
    <title>Your Logo</title>
    <desc>Created with Sketch.</desc>
    <defs></defs>
    <g id="Page-1" stroke="none" stroke-width="1" fill="none" fill-rule="evenodd">
        <g id="Artboard" transform="translate(-443.000000, -44.000000)" fill="#3FD3F7">
            <g id="Header-#3">
                <g id="Sevenwire-Logo" transform="translate(443.000000, 44.000000)">
                    <path d="M287.15856,10.2466594 C286.115701,9.23161189 285.594272,8.00373179 285.594272,6.56301914 C285.594272,5.12230649 286.115701,3.88624052 287.15856,2.85482124 C288.201419,1.82340195 289.451194,1.30769231 290.906505,1.30769231 C292.363197,1.30769231 293.604695,1.82340195 294.631,2.85482124 C295.658685,3.88624052 296.171838,5.12230649 296.171838,6.56301914 C296.171838,7.97235263 295.658685,9.19068256 294.631,10.2221018 C293.604695,11.2535211 292.363197,11.7692308 290.906505,11.7692308 C289.451194,11.7692308 288.201419,11.261707 287.15856,10.2466594" id="Fill-1"></path>
                    <path d="M305.6693,10.2466594 C304.626441,9.23161189 304.105012,8.00373179 304.105012,6.56301914 C304.105012,5.12230649 304.626441,3.88624052 305.6693,2.85482124 C306.712158,1.82340195 307.961933,1.30769231 309.418625,1.30769231 C310.873937,1.30769231 312.116814,1.82340195 313.14312,2.85482124 C314.169425,3.88624052 314.682578,5.12230649 314.682578,6.56301914 C314.682578,7.97235263 314.169425,9.19068256 313.14312,10.2221018 C312.116814,11.2535211 310.873937,11.7692308 309.418625,11.7692308 C307.961933,11.7692308 306.712158,11.261707 305.6693,10.2466594" id="Fill-3"></path>
                    <path d="M325.502235,10.2466594 C324.459377,9.23161189 323.937947,8.00373179 323.937947,6.56301914 C323.937947,5.12230649 324.459377,3.88624052 325.502235,2.85482124 C326.545094,1.82340195 327.794869,1.30769231 329.25156,1.30769231 C330.706872,1.30769231 331.94975,1.82340195 332.976055,2.85482124 C334.00236,3.88624052 334.515513,5.12230649 334.515513,6.56301914 C334.515513,7.97235263 334.00236,9.19068256 332.976055,10.2221018 C331.94975,11.2535211 330.706872,11.7692308 329.25156,11.7692308 C327.794869,11.7692308 326.545094,11.261707 325.502235,10.2466594" id="Fill-5"></path>
                    <path d="M355.914116,10.2466594 C354.869878,9.23161189 354.348449,8.00373179 354.348449,6.56301914 C354.348449,5.12230649 354.869878,3.88624052 355.914116,2.85482124 C356.956975,1.82340195 358.20537,1.30769231 359.663441,1.30769231 C361.118753,1.30769231 362.361631,1.82340195 363.387936,2.85482124 C364.412862,3.88624052 364.926014,5.12230649 364.926014,6.56301914 C364.926014,7.97235263 364.412862,9.19068256 363.387936,10.2221018 C362.361631,11.2535211 361.118753,11.7692308 359.663441,11.7692308 C358.20537,11.7692308 356.956975,11.261707 355.914116,10.2466594" id="Fill-7"></path>
                    <path d="M387.646813,10.2466594 C386.602575,9.23161189 386.081146,8.00373179 386.081146,6.56301914 C386.081146,5.12230649 386.602575,3.88624052 387.646813,2.85482124 C388.689671,1.82340195 389.938067,1.30769231 391.396138,1.30769231 C392.85145,1.30769231 394.094327,1.82340195 395.120633,2.85482124 C396.145559,3.88624052 396.658711,5.12230649 396.658711,6.56301914 C396.658711,7.97235263 396.145559,9.19068256 395.120633,10.2221018 C394.094327,11.2535211 392.85145,11.7692308 391.396138,11.7692308 C389.938067,11.7692308 388.689671,11.261707 387.646813,10.2466594" id="Fill-9"></path>
                    <path d="M407.478369,10.2466594 C406.43551,9.23161189 405.914081,8.00373179 405.914081,6.56301914 C405.914081,5.12230649 406.43551,3.88624052 407.478369,2.85482124 C408.521228,1.82340195 409.771003,1.30769231 411.227694,1.30769231 C412.683006,1.30769231 413.925884,1.82340195 414.952189,2.85482124 C415.978494,3.88624052 416.491647,5.12230649 416.491647,6.56301914 C416.491647,7.97235263 415.978494,9.19068256 414.952189,10.2221018 C413.925884,11.2535211 412.683006,11.7692308 411.227694,11.7692308 C409.771003,11.7692308 408.521228,11.261707 407.478369,10.2466594" id="Fill-11"></path>
                    <path d="M425.989109,10.2466594 C424.94625,9.23161189 424.424821,8.00373179 424.424821,6.56301914 C424.424821,5.12230649 424.94625,3.88624052 425.989109,2.85482124 C427.031967,1.82340195 428.281742,1.30769231 429.738434,1.30769231 C431.193746,1.30769231 432.436623,1.82340195 433.462929,2.85482124 C434.489234,3.88624052 435.002387,5.12230649 435.002387,6.56301914 C435.002387,7.97235263 434.489234,9.19068256 433.462929,10.2221018 C432.436623,11.2535211 431.193746,11.7692308 429.738434,11.7692308 C428.281742,11.7692308 427.031967,11.261707 425.989109,10.2466594" id="Fill-13"></path>
                    <path d="M443.249599,7.55555556 C443.039342,7.36182336 442.935561,7.10485913 442.935561,6.78062678 L442.935561,5.03703704 C442.935561,4.71549541 443.039342,4.44776828 443.249599,4.23789174 C443.459857,4.02801519 443.726722,3.92307692 444.051543,3.92307692 L462.97471,3.92307692 C463.296836,3.92307692 463.563701,4.02801519 463.775306,4.23789174 C463.985563,4.44776828 464.090692,4.71549541 464.090692,5.03703704 L464.090692,6.78062678 C464.090692,7.10485913 463.985563,7.36182336 463.775306,7.55555556 C463.563701,7.74928775 463.296836,7.84615385 462.97471,7.84615385 L444.051543,7.84615385 C443.726722,7.84615385 443.459857,7.74928775 443.249599,7.55555556" id="Fill-15"></path>
                    <path d="M485.487916,10.2466594 C484.445057,9.23161189 483.923628,8.00373179 483.923628,6.56301914 C483.923628,5.12230649 484.445057,3.88624052 485.487916,2.85482124 C486.530774,1.82340195 487.780549,1.30769231 489.23724,1.30769231 C490.692552,1.30769231 491.93543,1.82340195 492.961735,2.85482124 C493.988041,3.88624052 494.501193,5.12230649 494.501193,6.56301914 C494.501193,7.97235263 493.988041,9.19068256 492.961735,10.2221018 C491.93543,11.2535211 490.692552,11.7692308 489.23724,11.7692308 C487.780549,11.7692308 486.530774,11.261707 485.487916,10.2466594" id="Fill-17"></path>
                    <path d="M514.648187,7.55555556 C514.437916,7.36182336 514.334129,7.10485913 514.334129,6.78062678 L514.334129,5.03703704 C514.334129,4.71549541 514.437916,4.44776828 514.648187,4.23789174 C514.858458,4.02801519 515.12534,3.92307692 515.448834,3.92307692 L534.373207,3.92307692 C534.696701,3.92307692 534.963583,4.02801519 535.175202,4.23789174 C535.384125,4.44776828 535.48926,4.71549541 535.48926,5.03703704 L535.48926,6.78062678 C535.48926,7.10485913 535.384125,7.36182336 535.175202,7.55555556 C534.963583,7.74928775 534.696701,7.84615385 534.373207,7.84615385 L515.448834,7.84615385 C515.12534,7.84615385 514.858458,7.74928775 514.648187,7.55555556" id="Fill-19"></path>
                    <path d="M544.986722,10.2466594 C543.943864,9.23161189 543.422434,8.00373179 543.422434,6.56301914 C543.422434,5.12230649 543.943864,3.88624052 544.986722,2.85482124 C546.029581,1.82340195 547.277976,1.30769231 548.736047,1.30769231 C550.191359,1.30769231 551.434237,1.82340195 552.460542,2.85482124 C553.485468,3.88624052 554,5.12230649 554,6.56301914 C554,7.97235263 553.485468,9.19068256 552.460542,10.2221018 C551.434237,11.2535211 550.191359,11.7692308 548.736047,11.7692308 C547.277976,11.7692308 546.029581,11.261707 544.986722,10.2466594" id="Fill-21"></path>
                    <path d="M287.15856,32.4774287 C286.115701,31.4637454 285.594272,30.234501 285.594272,28.7951527 C285.594272,27.3530757 286.115701,26.1183741 287.15856,25.0855905 C288.201419,24.0541712 289.451194,23.5384615 290.906505,23.5384615 C292.363197,23.5384615 293.604695,24.0541712 294.631,25.0855905 C295.658685,26.1183741 296.171838,27.3530757 296.171838,28.7951527 C296.171838,30.2031219 295.658685,31.4228161 294.631,32.4528711 C293.604695,33.4842904 292.363197,34 290.906505,34 C289.451194,34 288.201419,33.4924762 287.15856,32.4774287" id="Fill-23"></path>
                    <path d="M304.41905,29.7863248 C304.208793,29.5912472 304.105012,29.334283 304.105012,29.011396 L304.105012,27.2678063 C304.105012,26.9462646 304.208793,26.6785375 304.41905,26.468661 C304.629308,26.2587844 304.896173,26.1538462 305.220994,26.1538462 L324.144162,26.1538462 C324.466287,26.1538462 324.733152,26.2587844 324.944757,26.468661 C325.155014,26.6785375 325.260143,26.9462646 325.260143,27.2678063 L325.260143,29.011396 C325.260143,29.334283 325.155014,29.5912472 324.944757,29.7863248 C324.733152,29.980057 324.466287,30.0769231 324.144162,30.0769231 L305.220994,30.0769231 C304.896173,30.0769231 304.629308,29.980057 304.41905,29.7863248" id="Fill-25"></path>
                    <path d="M332.186508,29.7863248 C331.97625,29.5912472 331.871122,29.334283 331.871122,29.011396 L331.871122,27.2678063 C331.871122,26.9462646 331.97625,26.6785375 332.186508,26.468661 C332.396765,26.2587844 332.66363,26.1538462 332.987103,26.1538462 L351.910271,26.1538462 C352.233744,26.1538462 352.499262,26.2587844 352.710867,26.468661 C352.921124,26.6785375 353.026253,26.9462646 353.026253,27.2678063 L353.026253,29.011396 C353.026253,29.334283 352.921124,29.5912472 352.710867,29.7863248 C352.499262,29.980057 352.233744,30.0769231 351.910271,30.0769231 L332.987103,30.0769231 C332.66363,30.0769231 332.396765,29.980057 332.186508,29.7863248" id="Fill-27"></path>
                    <path d="M374.424856,32.4774287 C373.380618,31.4637454 372.859189,30.234501 372.859189,28.7951527 C372.859189,27.3530757 373.380618,26.1183741 374.424856,25.0855905 C375.467714,24.0541712 376.71611,23.5384615 378.174181,23.5384615 C379.629493,23.5384615 380.87237,24.0541712 381.898676,25.0855905 C382.923602,26.1183741 383.436754,27.3530757 383.436754,28.7951527 C383.436754,30.2031219 382.923602,31.4228161 381.898676,32.4528711 C380.87237,33.4842904 379.629493,34 378.174181,34 C376.71611,34 375.467714,33.4924762 374.424856,32.4774287" id="Fill-29"></path>
                    <path d="M394.257791,32.4774287 C393.213553,31.4637454 392.692124,30.234501 392.692124,28.7951527 C392.692124,27.3530757 393.213553,26.1183741 394.257791,25.0855905 C395.30065,24.0541712 396.549046,23.5384615 398.007116,23.5384615 C399.462428,23.5384615 400.705306,24.0541712 401.731611,25.0855905 C402.756537,26.1183741 403.26969,27.3530757 403.26969,28.7951527 C403.26969,30.2031219 402.756537,31.4228161 401.731611,32.4528711 C400.705306,33.4842904 399.462428,34 398.007116,34 C396.549046,34 395.30065,33.4924762 394.257791,32.4774287" id="Fill-31"></path>
                    <path d="M424.666913,32.4774287 C423.624055,31.4637454 423.102625,30.234501 423.102625,28.7951527 C423.102625,27.3530757 423.624055,26.1183741 424.666913,25.0855905 C425.709772,24.0541712 426.959547,23.5384615 428.416238,23.5384615 C429.87155,23.5384615 431.114428,24.0541712 432.140733,25.0855905 C433.167038,26.1183741 433.680191,27.3530757 433.680191,28.7951527 C433.680191,30.2031219 433.167038,31.4228161 432.140733,32.4528711 C431.114428,33.4842904 429.87155,34 428.416238,34 C426.959547,34 425.709772,33.4924762 424.666913,32.4774287" id="Fill-33"></path>
                    <path d="M441.927403,29.7863248 C441.717146,29.5912472 441.613365,29.334283 441.613365,29.011396 L441.613365,27.2678063 C441.613365,26.9462646 441.717146,26.6785375 441.927403,26.468661 C442.137661,26.2587844 442.404526,26.1538462 442.729347,26.1538462 L461.652515,26.1538462 C461.97464,26.1538462 462.241505,26.2587844 462.45311,26.468661 C462.663368,26.6785375 462.768496,26.9462646 462.768496,27.2678063 L462.768496,29.011396 C462.768496,29.334283 462.663368,29.5912472 462.45311,29.7863248 C462.241505,29.980057 461.97464,30.0769231 461.652515,30.0769231 L442.729347,30.0769231 C442.404526,30.0769231 442.137661,29.980057 441.927403,29.7863248" id="Fill-35"></path>
                    <path d="M472.267338,32.4774287 C471.2231,31.4637454 470.701671,30.234501 470.701671,28.7951527 C470.701671,27.3530757 471.2231,26.1183741 472.267338,25.0855905 C473.310197,24.0541712 474.558592,23.5384615 476.016663,23.5384615 C477.471975,23.5384615 478.714853,24.0541712 479.741158,25.0855905 C480.766084,26.1183741 481.279236,27.3530757 481.279236,28.7951527 C481.279236,30.2031219 480.766084,31.4228161 479.741158,32.4528711 C478.714853,33.4842904 477.471975,34 476.016663,34 C474.558592,34 473.310197,33.4924762 472.267338,32.4774287" id="Fill-37"></path>
                    <path d="M503.998655,32.4774287 C502.955797,31.4637454 502.434368,30.234501 502.434368,28.7951527 C502.434368,27.3530757 502.955797,26.1183741 503.998655,25.0855905 C505.041514,24.0541712 506.28991,23.5384615 507.74798,23.5384615 C509.203292,23.5384615 510.44617,24.0541712 511.472475,25.0855905 C512.497401,26.1183741 513.011933,27.3530757 513.011933,28.7951527 C513.011933,30.2031219 512.497401,31.4228161 511.472475,32.4528711 C510.44617,33.4842904 509.203292,34 507.74798,34 C506.28991,34 505.041514,33.4924762 503.998655,32.4774287" id="Fill-39"></path>
                    <path d="M247.250597,0.887468288 C247.250597,0.420379716 247.637016,0 248.169685,0 L267.48664,0 C268.019308,0 268.405728,0.420379716 268.405728,0.887468288 L268.405728,3.5031643 C268.405728,3.9689554 268.019308,4.38933512 267.48664,4.38933512 L252.225749,4.38933512 L252.225749,13.9166445 L265.11982,13.9166445 C265.604186,13.9166445 266.038908,14.3383217 266.038908,14.8054103 L266.038908,17.4198088 C266.038908,17.9336063 265.604186,18.3072771 265.11982,18.3072771 L252.225749,18.3072771 L252.225749,28.3496814 L267.48664,28.3496814 C268.019308,28.3496814 268.405728,28.7700611 268.405728,29.2358523 L268.405728,31.8048394 C268.405728,32.271928 268.019308,32.6923077 267.48664,32.6923077 L248.169685,32.6923077 C247.637016,32.6923077 247.250597,32.271928 247.250597,31.8048394 L247.250597,0.887468288 Z" id="Fill-61"></path>
                    <path d="M228.75097,15.8784165 C231.789068,15.8784165 234.454386,13.3107269 234.454386,10.0878157 C234.454386,7.05173998 231.789068,4.52946169 228.75097,4.52946169 L220.428995,4.52946169 L220.428995,15.8784165 L228.75097,15.8784165 Z M215.5179,0.887468288 C215.5179,0.419082247 215.893278,0 216.407638,0 L229.12375,0 C234.734946,0 239.317422,4.43604397 239.317422,9.99439799 C239.317422,14.2903154 236.463766,17.8401885 232.398247,19.4749985 L238.801764,31.3377508 C239.129084,31.944966 238.801764,32.6923077 238.008143,32.6923077 L234.360866,32.6923077 C233.986787,32.6923077 233.706227,32.4574659 233.612707,32.271928 L227.394931,19.8953783 L220.335475,19.8953783 L220.335475,31.8035419 C220.335475,32.271928 219.913336,32.6923077 219.447036,32.6923077 L216.407638,32.6923077 C215.893278,32.6923077 215.5179,32.271928 215.5179,31.8035419 L215.5179,0.887468288 Z" id="Fill-59"></path>
                    <path d="M199.651551,0.887468288 C199.651551,0.420379716 200.109234,0 200.619184,0 L203.974114,0 C204.482651,0 204.940334,0.420379716 204.940334,0.887468288 L204.940334,31.8048394 C204.940334,32.271928 204.482651,32.6923077 203.974114,32.6923077 L200.619184,32.6923077 C200.109234,32.6923077 199.651551,32.271928 199.651551,31.8048394 L199.651551,0.887468288 Z" id="Fill-57"></path>
                    <path d="M153.595376,1.70928462 C153.40498,1.05020769 153.785772,0.579438462 154.452159,0.579438462 L157.641295,0.579438462 C158.022087,0.579438462 158.401558,0.908976923 158.498078,1.23851538 L164.25624,22.8455154 L164.446636,22.8455154 L172.203958,0.626515385 C172.299157,0.344053846 172.63235,0.108669231 173.013142,0.108669231 L173.869925,0.108669231 C174.250717,0.108669231 174.583911,0.344053846 174.679109,0.626515385 L182.531629,22.8455154 L182.722025,22.8455154 L188.384989,1.23851538 C188.48151,0.908976923 188.86098,0.579438462 189.241772,0.579438462 L192.430908,0.579438462 C193.097295,0.579438462 193.478087,1.05020769 193.289013,1.70928462 L184.292794,33.3410538 C184.197596,33.7176692 183.816803,34.0001308 183.436011,34.0001308 L182.674426,34.0001308 C182.341233,34.0001308 181.960441,33.7647462 181.865242,33.4822846 L173.489133,10.0876692 L173.251137,10.0876692 L165.017825,33.4822846 C164.922627,33.7647462 164.541834,34.0001308 164.208641,34.0001308 L163.447056,34.0001308 C163.066264,34.0001308 162.685472,33.7176692 162.590274,33.3410538 L153.595376,1.70928462 Z" id="Fill-54"></path>
                    <path d="M119.038205,0.956576923 C119.038205,0.485807692 119.466596,0.109192308 119.942587,0.109192308 L121.131241,0.109192308 L141.787904,23.7391923 L141.835503,23.7391923 L141.835503,1.47442308 C141.835503,1.00365385 142.216295,0.579961538 142.739885,0.579961538 L145.784902,0.579961538 C146.260892,0.579961538 146.689284,1.00365385 146.689284,1.47442308 L146.689284,33.1532692 C146.689284,33.6227308 146.260892,34.0006538 145.784902,34.0006538 L144.547326,34.0006538 L123.891985,9.71157692 L123.844386,9.71157692 L123.844386,32.6354231 C123.844386,33.1061923 123.464916,33.5298846 122.941326,33.5298846 L119.942587,33.5298846 C119.466596,33.5298846 119.038205,33.1061923 119.038205,32.6354231 L119.038205,0.956576923 Z" id="Fill-51"></path>
                    <path d="M89.9093079,0.887468288 C89.9093079,0.420379716 90.295752,0 90.8271126,0 L110.146634,0 C110.677995,0 111.064439,0.420379716 111.064439,0.887468288 L111.064439,3.5031643 C111.064439,3.9689554 110.677995,4.38933512 110.146634,4.38933512 L94.8847758,4.38933512 L94.8847758,13.9166445 L107.779664,13.9166445 C108.262719,13.9166445 108.697469,14.3383217 108.697469,14.8054103 L108.697469,17.4198088 C108.697469,17.9336063 108.262719,18.3072771 107.779664,18.3072771 L94.8847758,18.3072771 L94.8847758,28.3496814 L110.146634,28.3496814 C110.677995,28.3496814 111.064439,28.7700611 111.064439,29.2358523 L111.064439,31.8048394 C111.064439,32.271928 110.677995,32.6923077 110.146634,32.6923077 L90.8271126,32.6923077 C90.295752,32.6923077 89.9093079,32.271928 89.9093079,31.8048394 L89.9093079,0.887468288 Z" id="Fill-49"></path>
                    <path d="M53.2576463,1.80383077 C52.972052,1.19183077 53.3528444,0.579830769 54.0668301,0.579830769 L57.4450401,0.579830769 C57.8271547,0.579830769 58.160348,0.862292308 58.2542239,1.09767692 L68.7246916,24.3981385 L69.0116081,24.3981385 L79.4807537,1.09767692 C79.5759518,0.862292308 79.8628683,0.579830769 80.2899375,0.579830769 L83.6694697,0.579830769 C84.3834554,0.579830769 84.7642477,1.19183077 84.4786535,1.80383077 L69.8683909,33.4826769 C69.7255938,33.7651385 69.4386773,34.0005231 69.0592072,34.0005231 L68.5818945,34.0005231 C68.2487012,34.0005231 67.9155079,33.7651385 67.7740329,33.4826769 L53.2576463,1.80383077 Z" id="Fill-46"></path>
                    <path d="M29.0883055,0.887468288 C29.0883055,0.420379716 29.4747496,0 30.0061102,0 L49.325632,0 C49.8569926,0 50.2434368,0.420379716 50.2434368,0.887468288 L50.2434368,3.5031643 C50.2434368,3.9689554 49.8569926,4.38933512 49.325632,4.38933512 L34.0637734,4.38933512 L34.0637734,13.9166445 L46.9586618,13.9166445 C47.441717,13.9166445 47.8764666,14.3383217 47.8764666,14.8054103 L47.8764666,17.4198088 C47.8764666,17.9336063 47.441717,18.3072771 46.9586618,18.3072771 L34.0637734,18.3072771 L34.0637734,28.3496814 L49.325632,28.3496814 C49.8569926,28.3496814 50.2434368,28.7700611 50.2434368,29.2358523 L50.2434368,31.8048394 C50.2434368,32.271928 49.8569926,32.6923077 49.325632,32.6923077 L30.0061102,32.6923077 C29.4747496,32.6923077 29.0883055,32.271928 29.0883055,31.8048394 L29.0883055,0.887468288 Z" id="Fill-44"></path>
                    <path d="M0.232970883,28.7756385 C0.661362291,28.1636385 1.04215465,27.4574846 1.47054606,26.8454846 C1.89893747,26.2347923 2.56532411,26.0451769 3.0889136,26.4688692 C3.37450788,26.7042538 7.03831217,29.7171769 10.7034387,29.7171769 C13.9877728,29.7171769 16.0821308,27.7399462 16.0821308,25.3390231 C16.0821308,22.5157154 13.6069804,20.7267923 8.89467494,18.7966385 C4.04089451,16.7723308 0.232970883,14.2772538 0.232970883,8.81763846 C0.232970883,5.14563846 3.0889136,0.109715385 10.6558396,0.109715385 C15.4157442,0.109715385 18.9856726,2.55640769 19.4603408,2.88594615 C19.8424554,3.12133077 20.2219255,3.78040769 19.7459351,4.48656154 C19.3651427,5.05148462 18.9367513,5.71056154 18.5559589,6.27548462 C18.1751666,6.88748462 17.5577012,7.16994615 16.8913146,6.74625385 C16.5581212,6.55794615 13.2261881,4.39240769 10.4654434,4.39240769 C6.46844582,4.39240769 5.08807351,6.88748462 5.08807351,8.62933077 C5.08807351,11.3127154 7.18110931,12.9591 11.1318301,14.5597154 C16.6519971,16.7723308 21.3643026,19.3615615 21.3643026,25.1036385 C21.3643026,29.9996385 16.9389136,33.9998692 10.7510377,33.9998692 C4.94527637,33.9998692 1.28014988,30.9869462 0.518565155,30.2807923 C0.090173747,29.9054846 -0.24301957,29.5759462 0.232970883,28.7756385" id="Fill-41"></path>
                </g>
            </g>
        </g>
    </g>
</svg>